<?xml version="1.0" standalone="no"?>
<!DOCTYPE svg PUBLIC "-//W3C//DTD SVG 20010904//EN"
 "http://www.w3.org/TR/2001/REC-SVG-20010904/DTD/svg10.dtd">
<svg version="1.0" xmlns="http://www.w3.org/2000/svg"
 width="96.000000pt" height="96.000000pt" viewBox="0 0 96.000000 96.000000"
 preserveAspectRatio="xMidYMid meet">

<g transform="translate(0.000000,96.000000) scale(0.100000,-0.100000)"
fill="#000000" stroke="none">
<path d="M160 840 c-11 -11 -20 -28 -20 -38 0 -10 54 -97 120 -193 l120 -174
0 -147 c0 -180 4 -188 100 -188 96 0 100 8 100 188 l0 147 120 174 c66 96 120
183 120 193 0 10 -9 27 -20 38 -19 19 -33 20 -320 20 -287 0 -301 -1 -320 -20z
m614 -40 c-1 -9 -52 -90 -115 -180 l-114 -165 -5 -155 -5 -155 -55 0 -55 0 -5
155 -5 155 -111 160 c-132 191 -127 182 -119 195 4 7 109 9 298 8 255 -3 292
-5 291 -18z"/>
</g>
</svg>
